<svg width="50" height="56" viewBox="0 0 50 56" fill="none" xmlns="http://www.w3.org/2000/svg">
<mask id="mask0_1883_2423" style="mask-type:alpha" maskUnits="userSpaceOnUse" x="0" y="0" width="50" height="56">
<rect width="50" height="56" rx="10" fill="#F2F2F2"/>
</mask>
<g mask="url(#mask0_1883_2423)">
<path d="M5.17257 1.40323C4.21956 1.41134 3.30891 1.7967 2.6404 2.47479C1.97189 3.15288 1.60012 4.06832 1.60663 5.02027L1.97695 51.3158C1.98563 52.2678 2.37198 53.1776 3.05123 53.8458C3.73049 54.514 4.64718 54.8859 5.60021 54.8799L45.0643 54.5888C46.0173 54.5807 46.928 54.1953 47.5965 53.5173C48.265 52.8392 48.6368 51.9237 48.6302 50.9718L48.2749 6.54087L41.3793 1.13599L5.17257 1.40323Z" fill="#F2F2F2"/>
</g>
<mask id="mask1_1883_2423" style="mask-type:alpha" maskUnits="userSpaceOnUse" x="2" y="2" width="47" height="53">
<rect x="2" y="2" width="46.6667" height="52.6667" rx="10" fill="#F2F2F2"/>
</mask>
<g mask="url(#mask1_1883_2423)">
<path d="M6.40835 2.88104C5.5093 2.88897 4.65009 3.2532 4.01923 3.89384C3.38837 4.53448 3.03737 5.3992 3.04324 6.2983L3.37915 50.0234C3.38707 50.9225 3.75128 51.7817 4.39189 52.4126C5.0325 53.0435 5.89719 53.3945 6.79626 53.3886L44.0263 53.1022C44.9254 53.0943 45.7846 52.73 46.4154 52.0894C47.0463 51.4487 47.3973 50.584 47.3914 49.6849L47.0691 7.72092L40.5654 2.61812L6.40835 2.88104Z" fill="white"/>
<path d="M47.8627 8.32004L41.7549 8.31463C41.309 8.31422 40.8815 8.1369 40.5663 7.82167C40.2511 7.50645 40.0741 7.07915 40.0742 6.63377L40.0754 2.12768C40.0754 2.10797 40.081 2.08867 40.0915 2.07199C40.102 2.05531 40.117 2.04192 40.1348 2.03335C40.1526 2.02479 40.1724 2.0214 40.192 2.02357C40.2116 2.02573 40.2302 2.03337 40.2457 2.04561L47.928 8.13288C47.9451 8.14644 47.9576 8.16497 47.9636 8.1859C47.9697 8.20683 47.9691 8.22912 47.9619 8.24969C47.9548 8.27025 47.9413 8.28807 47.9236 8.30068C47.9058 8.31328 47.8845 8.32005 47.8627 8.32004Z" fill="#F2F2F2"/>
</g>
<path d="M11.5498 46.3686C13.1421 46.7656 14.7543 45.7982 15.1508 44.208C15.5473 42.6177 14.5779 41.0067 12.9856 40.6097C11.3934 40.2127 9.78111 41.18 9.38462 42.7703C8.98812 44.3606 9.95751 45.9716 11.5498 46.3686Z" fill="#1396E4"/>
<path d="M12.2287 44.5515C12.1619 44.5521 12.0967 44.531 12.0429 44.4914L12.0396 44.4889L11.3371 43.9605C11.3046 43.936 11.2772 43.9053 11.2565 43.8702C11.2358 43.8351 11.2223 43.7963 11.2166 43.756C11.211 43.7157 11.2133 43.6746 11.2235 43.6352C11.2337 43.5958 11.2516 43.5588 11.2762 43.5263C11.3007 43.4938 11.3314 43.4665 11.3665 43.4459C11.4017 43.4253 11.4405 43.4117 11.4809 43.4061C11.5212 43.4005 11.5623 43.4029 11.6018 43.4131C11.6412 43.4233 11.6783 43.4412 11.7108 43.4657L12.1658 43.8088L13.2233 42.4082C13.2729 42.3426 13.3464 42.2994 13.4279 42.2881C13.5094 42.2767 13.592 42.2981 13.6577 42.3476L13.6512 42.3568L13.6579 42.3475C13.7235 42.3971 13.7668 42.4707 13.7782 42.5521C13.7897 42.6334 13.7683 42.716 13.7188 42.7816L12.4749 44.4283C12.4461 44.4662 12.409 44.497 12.3663 44.5182C12.3237 44.5395 12.2767 44.5507 12.229 44.5509L12.2287 44.5515Z" fill="white"/>
<rect x="18.9435" y="41.1709" width="19.5718" height="1.6425" rx="0.821249" transform="rotate(-0.329143 18.9435 41.1709)" fill="#CCCCCC"/>
<rect x="19.2548" y="44.1125" width="22.7419" height="1.6425" rx="0.821249" transform="rotate(-0.329143 19.2548 44.1125)" fill="#CCCCCC"/>
<rect x="10.7548" y="10.1665" width="29.6667" height="25" rx="4.5" stroke="#E6E6E6"/>
<rect x="22.501" y="15.2727" width="12.9507" height="0.76429" rx="0.382145" transform="rotate(-0.329143 22.501 15.2727)" fill="#F2F2F2"/>
<rect x="22.5881" y="17.4077" width="12.9507" height="0.76429" rx="0.382145" transform="rotate(-0.329143 22.5881 17.4077)" fill="#F2F2F2"/>
<rect x="16.205" y="21.7339" width="19.3318" height="0.850489" rx="0.425245" transform="rotate(-0.329143 16.205 21.7339)" fill="#F2F2F2"/>
<rect x="16.11" y="23.8511" width="19.3103" height="0.857181" rx="0.42859" transform="rotate(-0.329143 16.11 23.8511)" fill="#F2F2F2"/>
<rect x="16.0692" y="25.9678" width="19.2561" height="0.857181" rx="0.42859" transform="rotate(-0.329143 16.0692 25.9678)" fill="#F2F2F2"/>
<rect x="16.2047" y="28.1094" width="19.1959" height="0.857181" rx="0.42859" transform="rotate(-0.329143 16.2047 28.1094)" fill="#F2F2F2"/>
<rect x="16.1586" y="30.2002" width="19.2622" height="0.857181" rx="0.42859" transform="rotate(-0.329143 16.1586 30.2002)" fill="#F2F2F2"/>
<rect x="15.9214" y="14" width="5.33333" height="6" rx="1" fill="#1396E4"/>
</svg>
